Coordinates

Units are S.I. units (second, meters, Newtons, ...)
If the header above contains a line with 'inDegrees', this indicates whether rotational values are in degrees (yes) or radians (no).

inDegrees=no
nColumns=21
nRows=20
DataType=double
version=3
OpenSimVersion=4.6-2026-03-31-d6972f9e6
endheader
time	/jointset/ground_pelvis/pelvis_tilt/value	/jointset/ground_pelvis/pelvis_list/value	/jointset/ground_pelvis/pelvis_rotation/value	/jointset/ground_pelvis/pelvis_tx/value	/jointset/ground_pelvis/pelvis_ty/value	/jointset/ground_pelvis/pelvis_tz/value	/jointset/hip_r/hip_flexion_r/value	/jointset/hip_r/hip_adduction_r/value	/jointset/hip_r/hip_rotation_r/value	/jointset/walker_knee_r/knee_angle_r/value	/jointset/patellofemoral_r/knee_angle_r_beta/value	/jointset/ankle_r/ankle_angle_r/value	/jointset/subtalar_r/subtalar_angle_r/value	/jointset/hip_l/hip_flexion_l/value	/jointset/hip_l/hip_adduction_l/value	/jointset/hip_l/hip_rotation_l/value	/jointset/walker_knee_l/knee_angle_l/value	/jointset/patellofemoral_l/knee_angle_l_beta/value	/jointset/ankle_l/ankle_angle_l/value	/jointset/subtalar_l/subtalar_angle_l/value
139.996	-0.1500473897564749	0.07957715906385922	0.1222321017275155	1.30750518000009	0.8955495400000479	-0.3750274500000217	0.1863256376076217	-0.1960588131528219	-0.0244489880738987	1.443652621413751	1.443652620000095	-0.3032421624708689	-0.4335130945261016	0.6192898145647969	0.164555009987217	0.05590838151122117	0.8110621353775785	0.8110621400000581	0.2002207671750298	-0.2630198171326045
140	-0.1462661433092758	0.07691772042252389	0.1176454386948524	1.306940147734402	0.8956872074259249	-0.3746772348267708	0.2055356954454643	-0.190639285918364	-0.01511637432647115	1.456986041967333	1.4569860407758	-0.2886334144871776	-0.4250062189884009	0.5988681429577705	0.1588390893990176	0.05592752981321145	0.8091563165043931	0.8091563204600316	0.2168658661550324	-0.2605199322933866
140.004	-0.1425939507588465	0.0742439460471523	0.1130946942407963	1.306382711903479	0.8958375353509551	-0.374332029244781	0.2247767144473905	-0.1852099282744536	-0.005900040041132937	1.470053877151481	1.470053876167814	-0.2739984639244523	-0.4164019321775282	0.5784652098117906	0.1531427215043303	0.05598348481472138	0.8070409539410507	0.8070409572598144	0.2332845243750871	-0.2580307214081909
140.008	-0.1391369754364247	0.07154254648951387	0.1086148287123558	1.305840356418225	0.8960132263221274	-0.3739965899964052	0.2440780642174894	-0.1797624551216037	0.003085971563033829	1.482595473142802	1.482595472340265	-0.2593150415241181	-0.407611529834069	0.5580985352673226	0.1474852946373063	0.056112863705201	0.8045111336704458	0.8045111364086568	0.2492514547331714	-0.2555653308205507
140.012	-0.1359956769164581	0.06880216296565893	0.1042387917562937	1.305320351069269	0.8962270298955179	-0.373675164920783	0.2634658858209118	-0.1742913445252137	0.01173216510972155	1.4943598050427	1.49435980438537	-0.2445682933556459	-0.398562688510946	0.5377832949236101	0.1418856424774098	0.05635165339904628	0.8013710604604453	0.8013710626944628	0.2645439167775316	-0.2531412272978453
140.016	-0.1332621230307752	0.0660139747281878	0.09999639770283725	1.304829666406846	0.8964916895191655	-0.3733712445889167	0.2829613243172705	-0.1687945190422483	0.01993589851973205	1.505109701951069	1.505109701398139	-0.2297536203708105	-0.3892055544471479	0.5175313270694197	0.1363613593821884	0.05673446015715845	0.7974382727554152	0.7974382745738781	0.2789433934264899	-0.2507810896381164
140.02	-0.1310174799820621	0.0631719876669051	0.09591320787216864	1.304374906011846	0.8968198274631556	-0.3730873379050519	0.302578592572985	-0.1632734280134726	0.0276035426036408	1.51462541362519	1.514625413135633	-0.2148788216251447	-0.3795170283170511	0.4973502936897025	0.130927865863176	0.05729346167264456	0.7925474512668694	0.7925474527626459	0.2922374885870917	-0.2485126120427654
140.024	-0.129329771533951	0.06027301388651574	0.09200949430512262	1.303962254786357	0.89722377432613	-0.3728247853228739	0.3223229399797395	-0.157732568779613	0.03465238448901854	1.522707410845114	1.522707410382012	-0.1999655461702913	-0.3695032227227669	0.4772430367135392	0.1255973061427402	0.05805706911246244	0.7865536958408152	0.7865536971035796	0.3042219758835939	-0.2463672346911828
140.028	-0.1282520133905375	0.05731637701462262	0.08829936368456866	1.303597439776512	0.8977153557581551	-0.372583623049224	0.342188667322452	-0.1521785459586363	0.04101217418933711	1.52917836937175	1.529178368905761	-0.1850501382355275	-0.359200286560207	0.4572071812997588	0.1203773991479834	0.05904837422322345	0.779335176568578	0.7793351776788051	0.3147029223632282	-0.2443780028013301
140.032	-0.1278208144185225	0.05430340276778998	0.08479010061728136	1.30328569850519	0.8983056522821264	-0.3723625084799264	0.3621573511678203	-0.1466188094293114	0.04662625832285244	1.533884342713892	1.533884342225554	-0.1701839043096889	-0.3486738010835538	0.4372350285660522	0.1152703749721057	0.06028347960243766	0.7707951139290875	0.7707951149541046	0.3234988539983225	-0.2425767846190043
140.036	-0.1280555306392512	0.05123675823771593	0.08148176076253202	1.303031749757883	0.8990047480013003	-0.3721587107445022	0.3821964634857754	-0.1410602144913781	0.05145229665807952	1.536695175792044	1.536695175272726	-0.1554327764965825	-0.3380169074325728	0.4173137868293877	0.1102720898988012	0.06176978808058294	0.760863086090402	0.7608630870827706	0.330442975302096	-0.2409910234212054
140.04	-0.128958057410045	0.04811968241467392	0.07836705175520349	1.302839762438645	0.8998214823729708	-0.3719681671809856	0.4022585756234916	-0.1355075228543142	0.05546254808169725	1.537504228845926	1.537504228297335	-0.1408764517028094	-0.3273474508160262	0.3974262014827005	0.1053713831693314	0.06350437364945853	0.7494956871072044	0.7494956881051897	0.335385420738117	-0.239640246020881
140.044	-0.1305133004045819	0.04495516060377516	0.07543153513282999	1.302713319312521	0.9007632191711381	-0.371785603987427	0.4222812744124264	-0.1299619676736718	0.05864372580929983	1.536227493787058	1.536227493219535	-0.1266070967696566	-0.316804411912669	0.3775515976459042	0.1005497416204315	0.06547259014175853	0.7366765669690246	0.7366765679984928	0.3381954863070927	-0.2385325746428392
140.048	-0.1326902817814173	0.04174513988344127	0.07265413540672497	1.30265537460273	0.9018356476078171	-0.3716047141543911	0.4421878137252238	-0.1244200405404093	0.0609964943512851	1.532802208546389	1.532802207976481	-0.1127275461143533	-0.3065436410548897	0.3576672550304937	0.09578134275898076	0.06764701666862366	0.7224158802987336	0.7224158813757011	0.3387638171658187	-0.2376614200387958
140.052	-0.1354437784223301	0.03848989782296634	0.07000790519053153	1.302668206940206	0.9030426289821917	-0.3714183823083749	0.4618884459744817	-0.1188726599107314	0.06253472369442163	1.527185087328352	1.527185086776089	-0.09934886059154724	-0.2967327885006886	0.3377499711127158	0.09103353105864909	0.06998678662222992	0.7067491643864898	0.7067491655196756	0.3370045318990298	-0.2370025210170738
140.056	-0.138716383437797	0.03518764167954552	0.06746099739511792	1.302753370763575	0.9043860968854976	-0.3712189459397957	0.4812823533256347	-0.1133048267802489	0.06328459310981045	1.519350280451397	1.519350279937619	-0.0865872476939116	-0.2875454638368067	0.3177776788815819	0.08626774885925245	0.07243736491690161	0.6897356771976186	0.6897356783906059	0.3328572206075019	-0.2365115596083663
140.06	-0.142440921403393	0.03183435243357376	0.06497781813202978	1.302911648940126	0.9058660097843545	-0.3709984827551922	0.5002601246191658	-0.1076957895186507	0.0632835771364773	1.509287170386005	1.509287169930014	-0.07456052065150381	-0.2791548930158712	0.2977310723395229	0.08144088693183406	0.07493087482554558	0.6714562811300957	0.6714562823829968	0.3262887191417374	-0.2361225936342188
140.064	-0.1465431801627072	0.02842383308109022	0.06252034675641618	1.303143008483754	0.9074803468764564	-0.3707491130101557	0.518706746318439	-0.1020196643945361	0.06257929353155207	1.496998103415584	1.496998103033356	-0.06338438752086156	-0.2717275098768508	0.2775952751053552	0.07650695795325503	0.07738707687420543	0.6520110199197097	0.6520110212304253	0.317294554399945	-0.2357474918006534
140.068	-0.1509448536712631	0.02494793002513038	0.06004958166092799	1.303446562922394	0.9092251422910853	-0.3704633040968393	0.5365049836921487	-0.09624644590311898	0.06122821175042594	1.48249614488861	1.482496144591642	-0.05316882495248837	-0.2654168539328089	0.2573614969242665	0.07141899473511826	0.07971506156419955	0.6315164936583642	0.6315164950235702	0.3058999416127178	-0.2352765362596415
140.072	-0.155566471342075	0.02139695021103136	0.05752702291702043	1.303820547724178	0.9110945633807757	-0.3701341635842278	0.5535388812068188	-0.09034337560969684	0.05929428909763186	1.465802938602617	1.465802938397368	-0.04401464881398414	-0.2603579124135991	0.2370284385903268	0.06613112365501017	0.08181565730417568	0.6101030303668999	0.6101030317828052	0.2921601970987796	-0.2345803721692683
